<?xml version="1.0" encoding="UTF-8"?>
<svg id="Layer_2" data-name="Layer 2" xmlns="http://www.w3.org/2000/svg" viewBox="0 0 960 568.04">
  <defs>
    <style>
      .cls-1 {
        fill: #7f3dff;
      }

      .cls-2 {
        fill: #cc97ff;
      }
    </style>
  </defs>
  <g id="Layer_1-2" data-name="Layer 1">
    <g>
      <path class="cls-2" d="m416.32,393.04c-138.77-1.37-277.55-2.74-416.32-4.11C100.88,260.2,201.77,131.47,302.65,2.74c139.69-.91,279.37-1.83,419.06-2.74-101.8,131.01-203.59,262.03-305.39,393.04Z"/>
      <path class="cls-1" d="m655.97,568.04c-111.44-.36-222.89-.72-334.33-1.08,100.17-128.73,200.35-257.46,300.52-386.19,112.61-.91,225.23-1.83,337.84-2.74-101.34,130-202.69,260-304.03,390.01Z"/>
      <path class="cls-1" d="m321.64,566.96h-117.58c41.54-51.58,83.08-103.17,124.62-154.75,38.43.8,76.85,1.6,115.28,2.39-40.77,50.79-81.54,101.57-122.32,152.36Z"/>
    </g>
  </g>
</svg>